{
  "asset": {
    "version": "2.0",
    "generator": "THREE.GLTFExporter"
  },
  "scenes": [
    {
      "name": "Scene",
      "nodes": [
        4
      ]
    }
  ],
  "scene": 0,
  "nodes": [
    {
      "name": "INPUT-13|:|B8A4396250C5687B1D31E70758B30729E1AC4426",
      "mesh": 0
    },
    {
      "name": "INPUT-13|:|B8A4396250C5687B1D31E70758B30729E1AC4426",
      "mesh": 1
    },
    {
      "name": "INPUT-13|:|C906BBC760572095F726B39B13C9EDE80CDE5667",
      "mesh": 2
    },
    {
      "name": "INPUT-13|:|62A847F87F404A1386DF7AE3239C498F49D94DDE",
      "mesh": 3
    },
    {
      "name": "capobj.obj",
      "children": [
        0,
        1,
        2,
        3
      ]
    }
  ],
  "bufferViews": [
    {
      "buffer": 0,
      "byteOffset": 0,
      "byteLength": 675000,
      "target": 34962,
      "byteStride": 12
    },
    {
      "buffer": 0,
      "byteOffset": 675000,
      "byteLength": 675000,
      "target": 34962,
      "byteStride": 12
    },
    {
      "buffer": 0,
      "byteOffset": 1350000,
      "byteLength": 450000,
      "target": 34962,
      "byteStride": 8
    },
    {
      "buffer": 0,
      "byteOffset": 1800000,
      "byteLength": 79272,
      "target": 34962,
      "byteStride": 12
    },
    {
      "buffer": 0,
      "byteOffset": 1879272,
      "byteLength": 79272,
      "target": 34962,
      "byteStride": 12
    },
    {
      "buffer": 0,
      "byteOffset": 1958544,
      "byteLength": 52848,
      "target": 34962,
      "byteStride": 8
    },
    {
      "buffer": 0,
      "byteOffset": 2011392,
      "byteLength": 26496,
      "target": 34962,
      "byteStride": 12
    },
    {
      "buffer": 0,
      "byteOffset": 2037888,
      "byteLength": 26496,
      "target": 34962,
      "byteStride": 12
    },
    {
      "buffer": 0,
      "byteOffset": 2064384,
      "byteLength": 17664,
      "target": 34962,
      "byteStride": 8
    },
    {
      "buffer": 0,
      "byteOffset": 2082048,
      "byteLength": 26496,
      "target": 34962,
      "byteStride": 12
    },
    {
      "buffer": 0,
      "byteOffset": 2108544,
      "byteLength": 26496,
      "target": 34962,
      "byteStride": 12
    },
    {
      "buffer": 0,
      "byteOffset": 2135040,
      "byteLength": 17664,
      "target": 34962,
      "byteStride": 8
    }
  ],
  "buffers": [
    {
      "byteLength": 2152704,
      "uri": "data:application/octet-stream;base64,"
    }
  ],
  "accessors": [
    {
      "bufferView": 0,
      "componentType": 5126,
      "count": 56250,
      "max": [
        0.14173229038715363,
        0.04921259731054306,
        0.25590550899505615
      ],
      "min": [
        -0.14173229038715363,
        -0.04921259731054306,
        -1.1419781839386019e-15
      ],
      "type": "VEC3"
    },
    {
      "bufferView": 1,
      "componentType": 5126,
      "count": 56250,
      "max": [
        1,
        1,
        1
      ],
      "min": [
        -1,
        -1,
        -1
      ],
      "type": "VEC3"
    },
    {
      "bufferView": 2,
      "componentType": 5126,
      "count": 56250,
      "max": [
        0.7250000238418579,
        0.625
      ],
      "min": [
        -0.7699999809265137,
        -0.125
      ],
      "type": "VEC2"
    },
    {
      "bufferView": 3,
      "componentType": 5126,
      "count": 6606,
      "max": [
        0.13188976049423218,
        0.03937007859349251,
        0.023622047156095505
      ],
      "min": [
        -0.13188976049423218,
        -0.03937007859349251,
        0.011811023578047752
      ],
      "type": "VEC3"
    },
    {
      "bufferView": 4,
      "componentType": 5126,
      "count": 6606,
      "max": [
        1,
        1,
        0.000926098320633173
      ],
      "min": [
        -1,
        -1,
        -1
      ],
      "type": "VEC3"
    },
    {
      "bufferView": 5,
      "componentType": 5126,
      "count": 6606,
      "max": [
        0.12232425808906555,
        0.6600009799003601
      ],
      "min": [
        -0.0016602810937911272,
        0
      ],
      "type": "VEC2"
    },
    {
      "bufferView": 6,
      "componentType": 5126,
      "count": 2208,
      "max": [
        -0.08858267962932587,
        0.009842164814472198,
        0.03346456587314606
      ],
      "min": [
        -0.10826628655195236,
        -0.009842164814472198,
        -0.09842519462108612
      ],
      "type": "VEC3"
    },
    {
      "bufferView": 7,
      "componentType": 5126,
      "count": 2208,
      "max": [
        1,
        0.9999639391899109,
        1
      ],
      "min": [
        -0.9998558163642883,
        -0.9999639391899109,
        -1
      ],
      "type": "VEC3"
    },
    {
      "bufferView": 8,
      "componentType": 5126,
      "count": 2208,
      "max": [
        0.27499639987945557,
        0.07811527699232101
      ],
      "min": [
        -0.33500000834465027,
        -0.07896435260772705
      ],
      "type": "VEC2"
    },
    {
      "bufferView": 9,
      "componentType": 5126,
      "count": 2208,
      "max": [
        0.10826771706342697,
        0.009842164814472198,
        0.03346456587314606
      ],
      "min": [
        0.08858409523963928,
        -0.009842164814472198,
        -0.09842519462108612
      ],
      "type": "VEC3"
    },
    {
      "bufferView": 10,
      "componentType": 5126,
      "count": 2208,
      "max": [
        1,
        0.9999639391899109,
        1
      ],
      "min": [
        -0.9998558163642883,
        -0.9999639391899109,
        -1
      ],
      "type": "VEC3"
    },
    {
      "bufferView": 11,
      "componentType": 5126,
      "count": 2208,
      "max": [
        0.2750000059604645,
        0.07811527699232101
      ],
      "min": [
        -0.33500000834465027,
        -0.07896435260772705
      ],
      "type": "VEC2"
    }
  ],
  "materials": [
    {
      "pbrMetallicRoughness": {
        "metallicFactor": 0.5,
        "roughnessFactor": 0.5
      },
      "name": "Material #27"
    },
    {
      "pbrMetallicRoughness": {
        "metallicFactor": 0.5,
        "roughnessFactor": 0.5
      },
      "name": "Material #28"
    },
    {
      "pbrMetallicRoughness": {
        "metallicFactor": 0.5,
        "roughnessFactor": 0.5
      },
      "name": "Material #29"
    }
  ],
  "meshes": [
    {
      "primitives": [
        {
          "mode": 4,
          "attributes": {
            "POSITION": 0,
            "NORMAL": 1,
            "TEXCOORD_0": 2
          },
          "material": 0
        }
      ]
    },
    {
      "primitives": [
        {
          "mode": 4,
          "attributes": {
            "POSITION": 3,
            "NORMAL": 4,
            "TEXCOORD_0": 5
          },
          "material": 1
        }
      ]
    },
    {
      "primitives": [
        {
          "mode": 4,
          "attributes": {
            "POSITION": 6,
            "NORMAL": 7,
            "TEXCOORD_0": 8
          },
          "material": 2
        }
      ]
    },
    {
      "primitives": [
        {
          "mode": 4,
          "attributes": {
            "POSITION": 9,
            "NORMAL": 10,
            "TEXCOORD_0": 11
          },
          "material": 2
        }
      ]
    }
  ]
}