{
    "asset" : {
        "generator" : "Khronos glTF Blender I/O v1.8.19",
        "version" : "2.0"
    },
    "scene" : 0,
    "scenes" : [
        {
            "name" : "Scene",
            "nodes" : [
                4
            ]
        }
    ],
    "nodes" : [
        {
            "mesh" : 0,
            "name" : "INPUT-13|:|62A847F87F404A1386DF7AE3239C498F49D94DDE"
        },
        {
            "mesh" : 1,
            "name" : "INPUT-13|:|B8A4396250C5687B1D31E70758B30729E1AC4426"
        },
        {
            "mesh" : 2,
            "name" : "INPUT-13|:|B8A4396250C5687B1D31E70758B30729E1AC4426.001"
        },
        {
            "mesh" : 3,
            "name" : "INPUT-13|:|C906BBC760572095F726B39B13C9EDE80CDE5667"
        },
        {
            "children" : [
                0,
                1,
                2,
                3
            ],
            "name" : "capobj.obj"
        }
    ],
    "materials" : [
        {
            "name" : "Material #29",
            "pbrMetallicRoughness" : {
                "baseColorFactor" : [
                    0.7011010646820068,
                    0.7011014819145203,
                    0.7011018991470337,
                    1
                ],
                "metallicFactor" : 0.5,
                "roughnessFactor" : 0.5
            }
        },
        {
            "name" : "Material #27",
            "pbrMetallicRoughness" : {
                "baseColorFactor" : [
                    0.25015729665756226,
                    0.6239601373672485,
                    0.8713670372962952,
                    1
                ],
                "metallicFactor" : 0.5,
                "roughnessFactor" : 0.5
            }
        },
        {
            "name" : "Material #28",
            "pbrMetallicRoughness" : {
                "baseColorFactor" : [
                    0.0029670889489352703,
                    0.06315512210130692,
                    1,
                    1
                ],
                "metallicFactor" : 0.5,
                "roughnessFactor" : 0.5
            }
        }
    ],
    "meshes" : [
        {
            "name" : "Mesh_3",
            "primitives" : [
                {
                    "attributes" : {
                        "POSITION" : 0,
                        "NORMAL" : 1,
                        "TEXCOORD_0" : 2
                    },
                    "indices" : 3,
                    "material" : 0
                }
            ]
        },
        {
            "name" : "Mesh_0",
            "primitives" : [
                {
                    "attributes" : {
                        "POSITION" : 4,
                        "NORMAL" : 5,
                        "TEXCOORD_0" : 6
                    },
                    "indices" : 7,
                    "material" : 1
                }
            ]
        },
        {
            "name" : "Mesh_1",
            "primitives" : [
                {
                    "attributes" : {
                        "POSITION" : 8,
                        "NORMAL" : 9,
                        "TEXCOORD_0" : 10
                    },
                    "indices" : 11,
                    "material" : 2
                }
            ]
        },
        {
            "name" : "Mesh_2",
            "primitives" : [
                {
                    "attributes" : {
                        "POSITION" : 12,
                        "NORMAL" : 13,
                        "TEXCOORD_0" : 14
                    },
                    "indices" : 3,
                    "material" : 0
                }
            ]
        }
    ],
    "accessors" : [
        {
            "bufferView" : 0,
            "componentType" : 5126,
            "count" : 2208,
            "max" : [
                0.10826771706342697,
                0.009842164814472198,
                0.03346456587314606
            ],
            "min" : [
                0.08858409523963928,
                -0.009842164814472198,
                -0.09842519462108612
            ],
            "type" : "VEC3"
        },
        {
            "bufferView" : 1,
            "componentType" : 5126,
            "count" : 2208,
            "type" : "VEC3"
        },
        {
            "bufferView" : 2,
            "componentType" : 5126,
            "count" : 2208,
            "type" : "VEC2"
        },
        {
            "bufferView" : 3,
            "componentType" : 5123,
            "count" : 2208,
            "type" : "SCALAR"
        },
        {
            "bufferView" : 4,
            "componentType" : 5126,
            "count" : 56250,
            "max" : [
                0.14173229038715363,
                0.04921259731054306,
                0.25590550899505615
            ],
            "min" : [
                -0.14173229038715363,
                -0.04921259731054306,
                -1.1419781839386019e-15
            ],
            "type" : "VEC3"
        },
        {
            "bufferView" : 5,
            "componentType" : 5126,
            "count" : 56250,
            "type" : "VEC3"
        },
        {
            "bufferView" : 6,
            "componentType" : 5126,
            "count" : 56250,
            "type" : "VEC2"
        },
        {
            "bufferView" : 7,
            "componentType" : 5123,
            "count" : 56250,
            "type" : "SCALAR"
        },
        {
            "bufferView" : 8,
            "componentType" : 5126,
            "count" : 6606,
            "max" : [
                0.13188976049423218,
                0.03937007859349251,
                0.023622047156095505
            ],
            "min" : [
                -0.13188976049423218,
                -0.03937007859349251,
                0.011811023578047752
            ],
            "type" : "VEC3"
        },
        {
            "bufferView" : 9,
            "componentType" : 5126,
            "count" : 6606,
            "type" : "VEC3"
        },
        {
            "bufferView" : 10,
            "componentType" : 5126,
            "count" : 6606,
            "type" : "VEC2"
        },
        {
            "bufferView" : 11,
            "componentType" : 5123,
            "count" : 6606,
            "type" : "SCALAR"
        },
        {
            "bufferView" : 12,
            "componentType" : 5126,
            "count" : 2208,
            "max" : [
                -0.08858267962932587,
                0.009842164814472198,
                0.03346456587314606
            ],
            "min" : [
                -0.10826628655195236,
                -0.009842164814472198,
                -0.09842519462108612
            ],
            "type" : "VEC3"
        },
        {
            "bufferView" : 13,
            "componentType" : 5126,
            "count" : 2208,
            "type" : "VEC3"
        },
        {
            "bufferView" : 14,
            "componentType" : 5126,
            "count" : 2208,
            "type" : "VEC2"
        }
    ],
    "bufferViews" : [
        {
            "buffer" : 0,
            "byteLength" : 26496,
            "byteOffset" : 0
        },
        {
            "buffer" : 0,
            "byteLength" : 26496,
            "byteOffset" : 26496
        },
        {
            "buffer" : 0,
            "byteLength" : 17664,
            "byteOffset" : 52992
        },
        {
            "buffer" : 0,
            "byteLength" : 4416,
            "byteOffset" : 70656
        },
        {
            "buffer" : 0,
            "byteLength" : 675000,
            "byteOffset" : 75072
        },
        {
            "buffer" : 0,
            "byteLength" : 675000,
            "byteOffset" : 750072
        },
        {
            "buffer" : 0,
            "byteLength" : 450000,
            "byteOffset" : 1425072
        },
        {
            "buffer" : 0,
            "byteLength" : 112500,
            "byteOffset" : 1875072
        },
        {
            "buffer" : 0,
            "byteLength" : 79272,
            "byteOffset" : 1987572
        },
        {
            "buffer" : 0,
            "byteLength" : 79272,
            "byteOffset" : 2066844
        },
        {
            "buffer" : 0,
            "byteLength" : 52848,
            "byteOffset" : 2146116
        },
        {
            "buffer" : 0,
            "byteLength" : 13212,
            "byteOffset" : 2198964
        },
        {
            "buffer" : 0,
            "byteLength" : 26496,
            "byteOffset" : 2212176
        },
        {
            "buffer" : 0,
            "byteLength" : 26496,
            "byteOffset" : 2238672
        },
        {
            "buffer" : 0,
            "byteLength" : 17664,
            "byteOffset" : 2265168
        }
    ],
    "buffers" : [
        {
            "byteLength" : 2282832,
            "uri" : "data:application/octet-stream;base64,"
        }
    ]
}
