{
    "asset" : {
        "generator" : "Khronos glTF Blender I/O v1.8.19",
        "version" : "2.0"
    },
    "scene" : 0,
    "scenes" : [
        {
            "name" : "Scene",
            "nodes" : [
                0
            ]
        }
    ],
    "nodes" : [
        {
            "mesh" : 0,
            "name" : "Icosphere"
        }
    ],
    "materials" : [
        {
            "doubleSided" : true,
            "name" : "Material",
            "pbrMetallicRoughness" : {
                "baseColorFactor" : [
                    0.8000000715255737,
                    0,
                    0,
                    1
                ],
                "metallicFactor" : 0,
                "roughnessFactor" : 0.4000000059604645
            }
        }
    ],
    "meshes" : [
        {
            "name" : "Icosphere",
            "primitives" : [
                {
                    "attributes" : {
                        "POSITION" : 0,
                        "NORMAL" : 1,
                        "TEXCOORD_0" : 2
                    },
                    "indices" : 3,
                    "material" : 0
                }
            ]
        }
    ],
    "accessors" : [
        {
            "bufferView" : 0,
            "componentType" : 5126,
            "count" : 2739,
            "max" : [
                1.1277333498001099,
                1.1843655109405518,
                1.1810264587402344
            ],
            "min" : [
                -1.1277333498001099,
                -1.1843655109405518,
                -1.181026577949524
            ],
            "type" : "VEC3"
        },
        {
            "bufferView" : 1,
            "componentType" : 5126,
            "count" : 2739,
            "type" : "VEC3"
        },
        {
            "bufferView" : 2,
            "componentType" : 5126,
            "count" : 2739,
            "type" : "VEC2"
        },
        {
            "bufferView" : 3,
            "componentType" : 5123,
            "count" : 5748,
            "type" : "SCALAR"
        }
    ],
    "bufferViews" : [
        {
            "buffer" : 0,
            "byteLength" : 32868,
            "byteOffset" : 0
        },
        {
            "buffer" : 0,
            "byteLength" : 32868,
            "byteOffset" : 32868
        },
        {
            "buffer" : 0,
            "byteLength" : 21912,
            "byteOffset" : 65736
        },
        {
            "buffer" : 0,
            "byteLength" : 11496,
            "byteOffset" : 87648
        }
    ],
    "buffers" : [
        {
            "byteLength" : 99144,
            "uri" : "data:application/octet-stream;base64,"
        }
    ]
}
