{
    "asset" : {
        "generator" : "Khronos glTF Blender I/O v1.8.19",
        "version" : "2.0"
    },
    "scene" : 0,
    "scenes" : [
        {
            "name" : "Scene",
            "nodes" : [
                0
            ]
        }
    ],
    "nodes" : [
        {
            "mesh" : 0,
            "name" : "0",
            "rotation" : [
                -0.5,
                -0.5,
                -0.4999999701976776,
                0.5
            ]
        }
    ],
    "materials" : [
        {
            "doubleSided" : true,
            "emissiveFactor" : [
                1,
                1,
                1
            ],
            "name" : "Material.001",
            "pbrMetallicRoughness" : {}
        }
    ],
    "meshes" : [
        {
            "name" : "0",
            "primitives" : [
                {
                    "attributes" : {
                        "POSITION" : 0,
                        "NORMAL" : 1,
                        "TEXCOORD_0" : 2
                    },
                    "indices" : 3,
                    "material" : 0
                }
            ]
        }
    ],
    "accessors" : [
        {
            "bufferView" : 0,
            "componentType" : 5126,
            "count" : 680,
            "max" : [
                0.2200000286102295,
                0.10000000149011612,
                0.30900001525878906
            ],
            "min" : [
                -0.2199999988079071,
                -0.10000000149011612,
                -0.39100003242492676
            ],
            "type" : "VEC3"
        },
        {
            "bufferView" : 1,
            "componentType" : 5126,
            "count" : 680,
            "type" : "VEC3"
        },
        {
            "bufferView" : 2,
            "componentType" : 5126,
            "count" : 680,
            "type" : "VEC2"
        },
        {
            "bufferView" : 3,
            "componentType" : 5123,
            "count" : 1152,
            "type" : "SCALAR"
        }
    ],
    "bufferViews" : [
        {
            "buffer" : 0,
            "byteLength" : 8160,
            "byteOffset" : 0
        },
        {
            "buffer" : 0,
            "byteLength" : 8160,
            "byteOffset" : 8160
        },
        {
            "buffer" : 0,
            "byteLength" : 5440,
            "byteOffset" : 16320
        },
        {
            "buffer" : 0,
            "byteLength" : 2304,
            "byteOffset" : 21760
        }
    ],
    "buffers" : [
        {
            "byteLength" : 24064,
            "uri" : "data:application/octet-stream;base64,"
        }
    ]
}
